<svg width="85" height="23" viewBox="0 0 85 23" fill="none" xmlns="http://www.w3.org/2000/svg">
<path id="Vector" d="M12.2688 5.88581V17.637H8.17015V16.1799C7.33395 17.3329 6.13033 17.9917 4.41358 17.9917C1.66425 17.9917 0.0678711 16.389 0.0678711 13.4496V5.88581H4.16652V12.5944C4.16652 14.1465 4.80634 14.7799 6.08598 14.7799C7.43531 14.7799 8.17649 14.0324 8.17649 12.4741V5.88581H12.2688ZM27.5105 11.7519C27.5105 13.1139 27.2634 14.2225 26.8453 15.141C25.9838 16.9085 24.3367 17.9664 22.0815 17.9664C20.4851 17.9664 19.2561 17.4469 18.3946 16.3383V22.3881H14.296V5.88581H18.3059V7.29848C19.1928 6.09486 20.4408 5.53106 22.0878 5.53106C24.3494 5.53106 25.9901 6.59531 26.8516 8.38174C27.2634 9.30029 27.5105 10.4089 27.5105 11.7519ZM23.1458 11.7519C23.1458 10.9284 23.0444 10.3392 22.848 9.91478C22.4806 9.13559 21.7457 8.73649 20.7385 8.73649C19.1928 8.73649 18.3566 9.67405 18.3566 11.4161V12.0496C18.3566 13.7917 19.1928 14.7293 20.7385 14.7293C21.7457 14.7293 22.4806 14.3302 22.848 13.551C23.0444 13.1392 23.1458 12.5691 23.1458 11.7519ZM48.1558 5.88581H52.2354V6.94373C52.8752 5.95549 53.5594 5.5564 54.5476 5.5564C56.0173 5.5564 56.9549 6.47495 56.9549 7.83694C56.9549 9.15459 55.9983 10.1238 54.5983 10.1238C53.7368 10.1238 53.0019 9.69306 52.6789 9.05957C52.3368 9.19894 52.2608 9.38898 52.2608 10.2125V17.6243H48.1621L48.1558 5.88581ZM69.9287 10.8777V17.637H65.83V16.2496C65.0191 17.3329 63.7648 17.9664 61.7757 17.9664C59.8372 17.9664 58.3866 17.3076 57.7784 15.9899C57.5314 15.5211 57.4363 14.9763 57.4363 14.3175C57.4363 13.684 57.5314 13.1646 57.7277 12.7148C58.6146 10.8777 60.9902 10.4532 63.9866 10.4532H65.83V10.2632C65.83 9.56003 65.7857 9.3003 65.6336 8.98989C65.3929 8.47676 64.8228 8.2107 63.9422 8.2107C62.9857 8.2107 62.4472 8.45143 62.2001 8.96455C62.1051 9.19894 62.0798 9.36364 62.0544 9.67405H57.8798C57.9051 9.03423 58.0318 8.49577 58.2472 8.02699C59.0581 6.30391 61.1486 5.53106 63.8979 5.53106C66.8626 5.53106 68.611 6.27857 69.4219 7.97631C69.7576 8.76183 69.9287 9.72473 69.9287 10.8777ZM65.6083 14.1021C65.7793 13.7727 65.83 13.4433 65.83 12.8098V12.6451H64.259C63.0807 12.6451 62.1241 12.7655 61.8581 13.3799C61.782 13.5193 61.7377 13.684 61.7377 13.8931C61.7377 14.1021 61.763 14.2732 61.8581 14.4569C62.1051 14.9763 62.7449 15.16 63.4861 15.16C64.5757 15.16 65.2852 14.7863 65.6083 14.1021ZM84.8219 1.02064V17.637H80.8246V16.2243C79.9377 17.4026 78.7088 17.9664 77.0427 17.9664C74.7812 17.9664 73.1404 16.9275 72.2789 15.141C71.8608 14.2225 71.6137 13.1139 71.6137 11.7519C71.6137 10.4152 71.8608 9.30663 72.2789 8.38808C73.1088 6.60165 74.7812 5.53739 77.0427 5.53739C78.6391 5.53739 79.8427 6.05685 80.7233 7.15911V1.02064H84.8219ZM80.7676 11.4225C80.7676 9.68039 79.9314 8.74283 78.3857 8.74283C77.3785 8.74283 76.6436 9.14192 76.2762 9.92111C76.0798 10.3455 75.9785 10.9347 75.9785 11.7582C75.9785 12.6071 76.0798 13.1709 76.2762 13.6207C76.6436 14.3935 77.3785 14.799 78.3857 14.799C79.9314 14.799 80.7676 13.8551 80.7676 12.1193V11.4225ZM38.8942 8.79351V11.8216H41.5422L41.4472 12.2207C41.1177 13.5383 39.477 14.4189 38.1467 14.4189C36.3032 14.4189 33.915 13.57 33.915 9.50935C33.915 6.14554 35.448 4.54282 37.8046 4.54282C39.0906 4.54282 40.0788 4.83422 40.6743 5.68943C40.9214 6.06952 41.1494 6.58264 41.1811 7.01341H45.8752C45.8752 7.01341 45.9892 4.92291 44.2155 3.11114C44.1838 3.07947 44.1585 3.05413 44.1331 3.02879C42.7015 1.54643 40.5539 0.7229 37.8996 0.7229C32.477 0.7229 28.9738 4.18173 28.9738 9.53469C28.9738 15.7238 33.4082 17.922 37.2091 17.922C39.344 17.922 41.2571 17.3076 42.4291 16.1103L42.4861 17.637H46.1603V8.79351H38.8942Z" fill="#42175B"/>
</svg>
